# xmcd
#
# Track frame offsets: 
#        150
#        17217
#        33745
#        50069
#        66861
#        84069
#        96454
#        109321
#        126182
#        142819
#        160021
#        177118
#        193769
#        210582
#        227369
#        241251
#        258060
#        270410
#        287360
#        303722
#
# Disc length: 4267 seconds
#
# Revision: 0
# Processed by: cddbd v1.5.2PL0 Copyright (c) Steve Scherf et al.
# Submitted via: ExactAudioCopy v0.99pb4
#
DISCID=0f10a914
DTITLE=Various Artist - The Very Best of Rare Groove - Volumes 7 and 8
DYEAR=1900
DGENRE=Rare Groove
TTITLE0=Audrey Wheeler - If You Need Someone
TTITLE1=Peabo Bryson - I've Been Down
TTITLE2=Sergio Mendez - That's Enough For Me
TTITLE3=Odyssey - Don't Tell Me, Tell Her
TTITLE4=Meters - Be My Lady
TTITLE5=Haywoode Tucker - Never Drive Your Crazy
TTITLE6=Ten City - Put Your Love Where Your Want It
TTITLE7=Love Unlimited - If You Want Me
TTITLE8=Randy Crawford - Endlessly
TTITLE9=Melvin Hudson - Life in the City
TTITLE10=Tony Toni Tone - Me and You
TTITLE11=Gladys Knight and The Pips - Your Number One
TTITLE12=Ashford and Simpson - Love or Physical
TTITLE13=80's Ladies - Turned Onto You
TTITLE14=The Jackson 5 - Blues Away
TTITLE15=Barbara Streisand and Barry Gibb - Guilty
TTITLE16=Arnold Blair - Trying to Get Next to You
TTITLE17=Breakwater - Work It Out
TTITLE18=Willie Bobbo - Coming Over Me
TTITLE19=Robbie Mychals - The Right Time
EXTD=
EXTT0=
EXTT1=
EXTT2=
EXTT3=
EXTT4=
EXTT5=
EXTT6=
EXTT7=
EXTT8=
EXTT9=
EXTT10=
EXTT11=
EXTT12=
EXTT13=
EXTT14=
EXTT15=
EXTT16=
EXTT17=
EXTT18=
EXTT19=
PLAYORDER=
